<svg xmlns="http://www.w3.org/2000/svg" viewBox="0 0 32 32" width="512" height="512" shape-rendering="crispEdges"><rect x="0" y="0" width="32" height="1" fill="#d1a326"/><rect x="0" y="1" width="32" height="1" fill="#d1a326"/><rect x="0" y="2" width="32" height="1" fill="#d1a326"/><rect x="0" y="3" width="32" height="1" fill="#d1a326"/><rect x="0" y="4" width="32" height="1" fill="#d1a326"/><rect x="0" y="5" width="32" height="1" fill="#d1a326"/><rect x="0" y="6" width="13" height="1" fill="#d1a326"/><rect x="13" y="6" width="2" height="1" fill="#5f0000"/><rect x="15" y="6" width="7" height="1" fill="#850000"/><rect x="22" y="6" width="10" height="1" fill="#d1a326"/><rect x="0" y="7" width="12" height="1" fill="#d1a326"/><rect x="12" y="7" width="1" height="1" fill="#5f0000"/><rect x="13" y="7" width="10" height="1" fill="#850000"/><rect x="23" y="7" width="9" height="1" fill="#d1a326"/><rect x="0" y="8" width="12" height="1" fill="#d1a326"/><rect x="12" y="8" width="1" height="1" fill="#5f0000"/><rect x="13" y="8" width="10" height="1" fill="#850000"/><rect x="23" y="8" width="9" height="1" fill="#d1a326"/><rect x="0" y="9" width="11" height="1" fill="#d1a326"/><rect x="11" y="9" width="1" height="1" fill="#10131a"/><rect x="12" y="9" width="1" height="1" fill="#5f0000"/><rect x="13" y="9" width="10" height="1" fill="#850000"/><rect x="23" y="9" width="9" height="1" fill="#d1a326"/><rect x="0" y="10" width="10" height="1" fill="#d1a326"/><rect x="10" y="10" width="1" height="1" fill="#10131a"/><rect x="11" y="10" width="1" height="1" fill="#5f0000"/><rect x="12" y="10" width="7" height="1" fill="#850000"/><rect x="19" y="10" width="1" height="1" fill="#f4f5f5"/><rect x="20" y="10" width="5" height="1" fill="#850000"/><rect x="25" y="10" width="7" height="1" fill="#d1a326"/><rect x="0" y="11" width="9" height="1" fill="#d1a326"/><rect x="9" y="11" width="2" height="1" fill="#5f0000"/><rect x="11" y="11" width="15" height="1" fill="#850000"/><rect x="26" y="11" width="6" height="1" fill="#d1a326"/><rect x="0" y="12" width="9" height="1" fill="#d1a326"/><rect x="9" y="12" width="2" height="1" fill="#5f0000"/><rect x="11" y="12" width="15" height="1" fill="#850000"/><rect x="26" y="12" width="6" height="1" fill="#d1a326"/><rect x="0" y="13" width="11" height="1" fill="#d1a326"/><rect x="11" y="13" width="1" height="1" fill="#10131a"/><rect x="12" y="13" width="1" height="1" fill="#565046"/><rect x="13" y="13" width="1" height="1" fill="#8c8374"/><rect x="14" y="13" width="5" height="1" fill="#dad2c2"/><rect x="19" y="13" width="1" height="1" fill="#8c8374"/><rect x="20" y="13" width="4" height="1" fill="#dad2c2"/><rect x="24" y="13" width="1" height="1" fill="#10131a"/><rect x="25" y="13" width="7" height="1" fill="#d1a326"/><rect x="0" y="14" width="4" height="1" fill="#d1a326"/><rect x="4" y="14" width="4" height="1" fill="#10131a"/><rect x="8" y="14" width="2" height="1" fill="#d1a326"/><rect x="10" y="14" width="1" height="1" fill="#10131a"/><rect x="11" y="14" width="14" height="1" fill="#000000"/><rect x="25" y="14" width="1" height="1" fill="#10131a"/><rect x="26" y="14" width="6" height="1" fill="#d1a326"/><rect x="0" y="15" width="3" height="1" fill="#d1a326"/><rect x="3" y="15" width="1" height="1" fill="#10131a"/><rect x="4" y="15" width="4" height="1" fill="#565046"/><rect x="8" y="15" width="1" height="1" fill="#10131a"/><rect x="9" y="15" width="2" height="1" fill="#d1a326"/><rect x="11" y="15" width="1" height="1" fill="#10131a"/><rect x="12" y="15" width="1" height="1" fill="#565046"/><rect x="13" y="15" width="1" height="1" fill="#8c8374"/><rect x="14" y="15" width="1" height="1" fill="#10131a"/><rect x="15" y="15" width="1" height="1" fill="#000000"/><rect x="16" y="15" width="2" height="1" fill="#6b5125"/><rect x="18" y="15" width="1" height="1" fill="#000000"/><rect x="19" y="15" width="1" height="1" fill="#8c8374"/><rect x="20" y="15" width="1" height="1" fill="#000000"/><rect x="21" y="15" width="2" height="1" fill="#6b5125"/><rect x="23" y="15" width="1" height="1" fill="#000000"/><rect x="24" y="15" width="1" height="1" fill="#10131a"/><rect x="25" y="15" width="7" height="1" fill="#d1a326"/><rect x="0" y="16" width="2" height="1" fill="#d1a326"/><rect x="2" y="16" width="1" height="1" fill="#10131a"/><rect x="3" y="16" width="5" height="1" fill="#565046"/><rect x="8" y="16" width="1" height="1" fill="#10131a"/><rect x="9" y="16" width="1" height="1" fill="#d1a326"/><rect x="10" y="16" width="1" height="1" fill="#10131a"/><rect x="11" y="16" width="1" height="1" fill="#565046"/><rect x="12" y="16" width="2" height="1" fill="#8c8374"/><rect x="14" y="16" width="1" height="1" fill="#10131a"/><rect x="15" y="16" width="1" height="1" fill="#000000"/><rect x="16" y="16" width="2" height="1" fill="#b57d1f"/><rect x="18" y="16" width="1" height="1" fill="#000000"/><rect x="19" y="16" width="1" height="1" fill="#8c8374"/><rect x="20" y="16" width="1" height="1" fill="#000000"/><rect x="21" y="16" width="2" height="1" fill="#b57d1f"/><rect x="23" y="16" width="1" height="1" fill="#000000"/><rect x="24" y="16" width="2" height="1" fill="#10131a"/><rect x="26" y="16" width="1" height="1" fill="#d1a326"/><rect x="27" y="16" width="1" height="1" fill="#9a9a9a"/><rect x="28" y="16" width="4" height="1" fill="#d1a326"/><rect x="0" y="17" width="1" height="1" fill="#d1a326"/><rect x="1" y="17" width="1" height="1" fill="#10131a"/><rect x="2" y="17" width="6" height="1" fill="#b4ac9a"/><rect x="8" y="17" width="1" height="1" fill="#10131a"/><rect x="9" y="17" width="1" height="1" fill="#d1a326"/><rect x="10" y="17" width="1" height="1" fill="#10131a"/><rect x="11" y="17" width="1" height="1" fill="#565046"/><rect x="12" y="17" width="3" height="1" fill="#8c8374"/><rect x="15" y="17" width="1" height="1" fill="#10131a"/><rect x="16" y="17" width="2" height="1" fill="#000000"/><rect x="18" y="17" width="1" height="1" fill="#10131a"/><rect x="19" y="17" width="1" height="1" fill="#8c8374"/><rect x="20" y="17" width="1" height="1" fill="#10131a"/><rect x="21" y="17" width="2" height="1" fill="#000000"/><rect x="23" y="17" width="1" height="1" fill="#10131a"/><rect x="24" y="17" width="1" height="1" fill="#8c8374"/><rect x="25" y="17" width="1" height="1" fill="#10131a"/><rect x="26" y="17" width="6" height="1" fill="#d1a326"/><rect x="0" y="18" width="1" height="1" fill="#d1a326"/><rect x="1" y="18" width="1" height="1" fill="#10131a"/><rect x="2" y="18" width="6" height="1" fill="#b4ac9a"/><rect x="8" y="18" width="1" height="1" fill="#10131a"/><rect x="9" y="18" width="1" height="1" fill="#d1a326"/><rect x="10" y="18" width="1" height="1" fill="#10131a"/><rect x="11" y="18" width="1" height="1" fill="#565046"/><rect x="12" y="18" width="2" height="1" fill="#8c8374"/><rect x="14" y="18" width="4" height="1" fill="#dad2c2"/><rect x="18" y="18" width="2" height="1" fill="#16181f"/><rect x="20" y="18" width="6" height="1" fill="#10131a"/><rect x="26" y="18" width="1" height="1" fill="#9a9a9a"/><rect x="27" y="18" width="5" height="1" fill="#d1a326"/><rect x="0" y="19" width="1" height="1" fill="#d1a326"/><rect x="1" y="19" width="1" height="1" fill="#10131a"/><rect x="2" y="19" width="5" height="1" fill="#565046"/><rect x="7" y="19" width="1" height="1" fill="#10131a"/><rect x="8" y="19" width="3" height="1" fill="#d1a326"/><rect x="11" y="19" width="1" height="1" fill="#10131a"/><rect x="12" y="19" width="1" height="1" fill="#565046"/><rect x="13" y="19" width="3" height="1" fill="#8c8374"/><rect x="16" y="19" width="3" height="1" fill="#dad2c2"/><rect x="19" y="19" width="1" height="1" fill="#10131a"/><rect x="20" y="19" width="1" height="1" fill="#6b4326"/><rect x="21" y="19" width="1" height="1" fill="#d8b040"/><rect x="22" y="19" width="3" height="1" fill="#6b4326"/><rect x="25" y="19" width="1" height="1" fill="#f26a1f"/><rect x="26" y="19" width="1" height="1" fill="#10131a"/><rect x="27" y="19" width="5" height="1" fill="#d1a326"/><rect x="0" y="20" width="1" height="1" fill="#d1a326"/><rect x="1" y="20" width="1" height="1" fill="#10131a"/><rect x="2" y="20" width="5" height="1" fill="#565046"/><rect x="7" y="20" width="1" height="1" fill="#10131a"/><rect x="8" y="20" width="3" height="1" fill="#d1a326"/><rect x="11" y="20" width="1" height="1" fill="#10131a"/><rect x="12" y="20" width="1" height="1" fill="#24242a"/><rect x="13" y="20" width="3" height="1" fill="#8f5c33"/><rect x="16" y="20" width="1" height="1" fill="#24242a"/><rect x="17" y="20" width="2" height="1" fill="#8c8374"/><rect x="19" y="20" width="1" height="1" fill="#10131a"/><rect x="20" y="20" width="1" height="1" fill="#6b4326"/><rect x="21" y="20" width="1" height="1" fill="#d8b040"/><rect x="22" y="20" width="3" height="1" fill="#6b4326"/><rect x="25" y="20" width="1" height="1" fill="#f26a1f"/><rect x="26" y="20" width="1" height="1" fill="#10131a"/><rect x="27" y="20" width="5" height="1" fill="#d1a326"/><rect x="0" y="21" width="1" height="1" fill="#d1a326"/><rect x="1" y="21" width="1" height="1" fill="#10131a"/><rect x="2" y="21" width="5" height="1" fill="#b4ac9a"/><rect x="7" y="21" width="1" height="1" fill="#10131a"/><rect x="8" y="21" width="2" height="1" fill="#d1a326"/><rect x="10" y="21" width="1" height="1" fill="#10131a"/><rect x="11" y="21" width="1" height="1" fill="#565046"/><rect x="12" y="21" width="1" height="1" fill="#8c8374"/><rect x="13" y="21" width="1" height="1" fill="#5c3a20"/><rect x="14" y="21" width="1" height="1" fill="#8f5c33"/><rect x="15" y="21" width="1" height="1" fill="#24242a"/><rect x="16" y="21" width="1" height="1" fill="#8c8374"/><rect x="17" y="21" width="3" height="1" fill="#b4ac9a"/><rect x="20" y="21" width="6" height="1" fill="#10131a"/><rect x="26" y="21" width="6" height="1" fill="#d1a326"/><rect x="0" y="22" width="1" height="1" fill="#d1a326"/><rect x="1" y="22" width="1" height="1" fill="#10131a"/><rect x="2" y="22" width="6" height="1" fill="#b4ac9a"/><rect x="8" y="22" width="1" height="1" fill="#10131a"/><rect x="9" y="22" width="1" height="1" fill="#d1a326"/><rect x="10" y="22" width="1" height="1" fill="#10131a"/><rect x="11" y="22" width="1" height="1" fill="#565046"/><rect x="12" y="22" width="5" height="1" fill="#8c8374"/><rect x="17" y="22" width="5" height="1" fill="#b4ac9a"/><rect x="22" y="22" width="1" height="1" fill="#10131a"/><rect x="23" y="22" width="9" height="1" fill="#d1a326"/><rect x="0" y="23" width="2" height="1" fill="#d1a326"/><rect x="2" y="23" width="1" height="1" fill="#10131a"/><rect x="3" y="23" width="6" height="1" fill="#565046"/><rect x="9" y="23" width="1" height="1" fill="#10131a"/><rect x="10" y="23" width="1" height="1" fill="#565046"/><rect x="11" y="23" width="1" height="1" fill="#24242a"/><rect x="12" y="23" width="2" height="1" fill="#8f5c33"/><rect x="14" y="23" width="1" height="1" fill="#24242a"/><rect x="15" y="23" width="2" height="1" fill="#8c8374"/><rect x="17" y="23" width="5" height="1" fill="#b4ac9a"/><rect x="22" y="23" width="1" height="1" fill="#10131a"/><rect x="23" y="23" width="9" height="1" fill="#d1a326"/><rect x="0" y="24" width="3" height="1" fill="#d1a326"/><rect x="3" y="24" width="2" height="1" fill="#10131a"/><rect x="5" y="24" width="6" height="1" fill="#565046"/><rect x="11" y="24" width="1" height="1" fill="#8c8374"/><rect x="12" y="24" width="1" height="1" fill="#5c3a20"/><rect x="13" y="24" width="1" height="1" fill="#8f5c33"/><rect x="14" y="24" width="1" height="1" fill="#10131a"/><rect x="15" y="24" width="2" height="1" fill="#8c8374"/><rect x="17" y="24" width="1" height="1" fill="#10131a"/><rect x="18" y="24" width="2" height="1" fill="#b4ac9a"/><rect x="20" y="24" width="1" height="1" fill="#10131a"/><rect x="21" y="24" width="1" height="1" fill="#b4ac9a"/><rect x="22" y="24" width="1" height="1" fill="#10131a"/><rect x="23" y="24" width="9" height="1" fill="#d1a326"/><rect x="0" y="25" width="5" height="1" fill="#d1a326"/><rect x="5" y="25" width="2" height="1" fill="#10131a"/><rect x="7" y="25" width="4" height="1" fill="#565046"/><rect x="11" y="25" width="2" height="1" fill="#8c8374"/><rect x="13" y="25" width="1" height="1" fill="#24242a"/><rect x="14" y="25" width="1" height="1" fill="#10131a"/><rect x="15" y="25" width="2" height="1" fill="#8c8374"/><rect x="17" y="25" width="1" height="1" fill="#10131a"/><rect x="18" y="25" width="2" height="1" fill="#8c8374"/><rect x="20" y="25" width="1" height="1" fill="#10131a"/><rect x="21" y="25" width="1" height="1" fill="#8c8374"/><rect x="22" y="25" width="1" height="1" fill="#10131a"/><rect x="23" y="25" width="9" height="1" fill="#d1a326"/><rect x="0" y="26" width="4" height="1" fill="#d1a326"/><rect x="4" y="26" width="21" height="1" fill="#10131a"/><rect x="25" y="26" width="7" height="1" fill="#d1a326"/><rect x="0" y="27" width="32" height="1" fill="#d1a326"/><rect x="0" y="28" width="32" height="1" fill="#d1a326"/><rect x="0" y="29" width="32" height="1" fill="#d1a326"/><rect x="0" y="30" width="32" height="1" fill="#d1a326"/><rect x="0" y="31" width="32" height="1" fill="#d1a326"/></svg>