<svg xmlns="http://www.w3.org/2000/svg" viewBox="0 0 32 32" width="512" height="512" shape-rendering="crispEdges"><rect x="0" y="0" width="1" height="1" fill="#f3ca70"/><rect x="1" y="0" width="1" height="1" fill="#f3cb73"/><rect x="2" y="0" width="1" height="1" fill="#f4cd75"/><rect x="3" y="0" width="1" height="1" fill="#f4ce77"/><rect x="4" y="0" width="1" height="1" fill="#f4cf79"/><rect x="5" y="0" width="1" height="1" fill="#f4cf7a"/><rect x="6" y="0" width="1" height="1" fill="#f4cf7b"/><rect x="7" y="0" width="1" height="1" fill="#f4cf7a"/><rect x="8" y="0" width="1" height="1" fill="#f4cf79"/><rect x="9" y="0" width="1" height="1" fill="#f4ce77"/><rect x="10" y="0" width="1" height="1" fill="#f4cd75"/><rect x="11" y="0" width="1" height="1" fill="#f3cb73"/><rect x="12" y="0" width="1" height="1" fill="#f3ca70"/><rect x="13" y="0" width="19" height="1" fill="#f3c96e"/><rect x="0" y="1" width="1" height="1" fill="#f2c870"/><rect x="1" y="1" width="1" height="1" fill="#f3ca73"/><rect x="2" y="1" width="1" height="1" fill="#f3cc76"/><rect x="3" y="1" width="1" height="1" fill="#f4cd79"/><rect x="4" y="1" width="1" height="1" fill="#f4ce7b"/><rect x="5" y="1" width="1" height="1" fill="#f4cf7c"/><rect x="6" y="1" width="1" height="1" fill="#f4cf7d"/><rect x="7" y="1" width="1" height="1" fill="#f4cf7c"/><rect x="8" y="1" width="1" height="1" fill="#f4ce7b"/><rect x="9" y="1" width="1" height="1" fill="#f4cd79"/><rect x="10" y="1" width="1" height="1" fill="#f3cc76"/><rect x="11" y="1" width="1" height="1" fill="#f3ca73"/><rect x="12" y="1" width="1" height="1" fill="#f2c870"/><rect x="13" y="1" width="1" height="1" fill="#f2c66c"/><rect x="14" y="1" width="18" height="1" fill="#f2c66b"/><rect x="0" y="2" width="1" height="1" fill="#f2c871"/><rect x="1" y="2" width="1" height="1" fill="#f3ca75"/><rect x="2" y="2" width="1" height="1" fill="#f3cc78"/><rect x="3" y="2" width="1" height="1" fill="#f4ce7b"/><rect x="4" y="2" width="1" height="1" fill="#f4cf7e"/><rect x="5" y="2" width="1" height="1" fill="#f4d080"/><rect x="6" y="2" width="1" height="1" fill="#f4d180"/><rect x="7" y="2" width="1" height="1" fill="#f4d080"/><rect x="8" y="2" width="1" height="1" fill="#f4cf7e"/><rect x="9" y="2" width="1" height="1" fill="#f4ce7b"/><rect x="10" y="2" width="1" height="1" fill="#f3cc78"/><rect x="11" y="2" width="1" height="1" fill="#f3ca75"/><rect x="12" y="2" width="1" height="1" fill="#f2c871"/><rect x="13" y="2" width="1" height="1" fill="#f1c66d"/><rect x="14" y="2" width="18" height="1" fill="#f1c469"/><rect x="0" y="3" width="1" height="1" fill="#f2c872"/><rect x="1" y="3" width="1" height="1" fill="#f3ca76"/><rect x="2" y="3" width="1" height="1" fill="#f4cd7a"/><rect x="3" y="3" width="1" height="1" fill="#f4cf7e"/><rect x="4" y="3" width="1" height="1" fill="#f5d181"/><rect x="5" y="3" width="1" height="1" fill="#f5d283"/><rect x="6" y="3" width="1" height="1" fill="#f5d284"/><rect x="7" y="3" width="1" height="1" fill="#f5d283"/><rect x="8" y="3" width="1" height="1" fill="#f5d181"/><rect x="9" y="3" width="1" height="1" fill="#f4cf7e"/><rect x="10" y="3" width="1" height="1" fill="#f4cd7a"/><rect x="11" y="3" width="1" height="1" fill="#f3ca76"/><rect x="12" y="3" width="1" height="1" fill="#f2c872"/><rect x="13" y="3" width="1" height="1" fill="#f2c56d"/><rect x="14" y="3" width="1" height="1" fill="#f1c369"/><rect x="15" y="3" width="17" height="1" fill="#f1c267"/><rect x="0" y="4" width="1" height="1" fill="#f2c772"/><rect x="1" y="4" width="1" height="1" fill="#f3ca77"/><rect x="2" y="4" width="1" height="1" fill="#f3cd7b"/><rect x="3" y="4" width="1" height="1" fill="#f4cf80"/><rect x="4" y="4" width="1" height="1" fill="#f5d284"/><rect x="5" y="4" width="1" height="1" fill="#f5d387"/><rect x="6" y="4" width="1" height="1" fill="#f5d488"/><rect x="7" y="4" width="1" height="1" fill="#f5d387"/><rect x="8" y="4" width="1" height="1" fill="#f5d284"/><rect x="9" y="4" width="1" height="1" fill="#f4cf80"/><rect x="10" y="4" width="1" height="1" fill="#f3cd7b"/><rect x="11" y="4" width="1" height="1" fill="#f3ca77"/><rect x="12" y="4" width="1" height="1" fill="#f2c772"/><rect x="13" y="4" width="1" height="1" fill="#f1c56d"/><rect x="14" y="4" width="1" height="1" fill="#f0c268"/><rect x="15" y="4" width="17" height="1" fill="#f0c065"/><rect x="0" y="5" width="1" height="1" fill="#f2c772"/><rect x="1" y="5" width="1" height="1" fill="#f3ca77"/><rect x="2" y="5" width="1" height="1" fill="#f4cd7c"/><rect x="3" y="5" width="1" height="1" fill="#f4d081"/><rect x="4" y="5" width="1" height="1" fill="#f5d386"/><rect x="5" y="5" width="1" height="1" fill="#f6d58a"/><rect x="6" y="5" width="1" height="1" fill="#f6d68c"/><rect x="7" y="5" width="1" height="1" fill="#f6d58a"/><rect x="8" y="5" width="1" height="1" fill="#f5d386"/><rect x="9" y="5" width="1" height="1" fill="#f4d081"/><rect x="10" y="5" width="1" height="1" fill="#f4cd7c"/><rect x="11" y="5" width="1" height="1" fill="#f3ca77"/><rect x="12" y="5" width="1" height="1" fill="#f2c772"/><rect x="13" y="5" width="1" height="1" fill="#f1c46d"/><rect x="14" y="5" width="1" height="1" fill="#f0c067"/><rect x="15" y="5" width="17" height="1" fill="#f0be63"/><rect x="0" y="6" width="1" height="1" fill="#f1c571"/><rect x="1" y="6" width="1" height="1" fill="#f2c876"/><rect x="2" y="6" width="1" height="1" fill="#f3cb7b"/><rect x="3" y="6" width="1" height="1" fill="#f4cf81"/><rect x="4" y="6" width="1" height="1" fill="#f5d286"/><rect x="5" y="6" width="1" height="1" fill="#f6d58b"/><rect x="6" y="6" width="1" height="1" fill="#f7d991"/><rect x="7" y="6" width="1" height="1" fill="#f6d58b"/><rect x="8" y="6" width="1" height="1" fill="#f5d286"/><rect x="9" y="6" width="1" height="1" fill="#f4cf81"/><rect x="10" y="6" width="1" height="1" fill="#f3cb7b"/><rect x="11" y="6" width="1" height="1" fill="#f2c876"/><rect x="12" y="6" width="1" height="1" fill="#f1c571"/><rect x="13" y="6" width="1" height="1" fill="#f0c16b"/><rect x="14" y="6" width="1" height="1" fill="#efbe66"/><rect x="15" y="6" width="17" height="1" fill="#efbb61"/><rect x="0" y="7" width="1" height="1" fill="#f0c36f"/><rect x="1" y="7" width="1" height="1" fill="#f1c674"/><rect x="2" y="7" width="1" height="1" fill="#f2ca79"/><rect x="3" y="7" width="1" height="1" fill="#f3cd7f"/><rect x="4" y="7" width="1" height="1" fill="#f4d084"/><rect x="5" y="7" width="1" height="1" fill="#f5d388"/><rect x="6" y="7" width="1" height="1" fill="#f6d58b"/><rect x="7" y="7" width="1" height="1" fill="#f5d388"/><rect x="8" y="7" width="1" height="1" fill="#f4d084"/><rect x="9" y="7" width="1" height="1" fill="#f3cd7f"/><rect x="10" y="7" width="1" height="1" fill="#f2ca79"/><rect x="11" y="7" width="1" height="1" fill="#f1c674"/><rect x="12" y="7" width="1" height="1" fill="#f0c36f"/><rect x="13" y="7" width="2" height="1" fill="#10131a"/><rect x="15" y="7" width="6" height="1" fill="#eeb95f"/><rect x="21" y="7" width="2" height="1" fill="#10131a"/><rect x="23" y="7" width="9" height="1" fill="#eeb95f"/><rect x="0" y="8" width="1" height="1" fill="#f0c06c"/><rect x="1" y="8" width="1" height="1" fill="#f1c471"/><rect x="2" y="8" width="1" height="1" fill="#f2c776"/><rect x="3" y="8" width="1" height="1" fill="#f3ca7b"/><rect x="4" y="8" width="1" height="1" fill="#f4cd80"/><rect x="5" y="8" width="1" height="1" fill="#f4cf83"/><rect x="6" y="8" width="1" height="1" fill="#f5d084"/><rect x="7" y="8" width="1" height="1" fill="#f4cf83"/><rect x="8" y="8" width="1" height="1" fill="#f4cd80"/><rect x="9" y="8" width="1" height="1" fill="#f3ca7b"/><rect x="10" y="8" width="1" height="1" fill="#f2c776"/><rect x="11" y="8" width="1" height="1" fill="#f1c471"/><rect x="12" y="8" width="1" height="1" fill="#10131a"/><rect x="13" y="8" width="1" height="1" fill="#221a12"/><rect x="14" y="8" width="1" height="1" fill="#d9a85c"/><rect x="15" y="8" width="1" height="1" fill="#10131a"/><rect x="16" y="8" width="4" height="1" fill="#eeb75d"/><rect x="20" y="8" width="1" height="1" fill="#10131a"/><rect x="21" y="8" width="1" height="1" fill="#d9a85c"/><rect x="22" y="8" width="1" height="1" fill="#221a12"/><rect x="23" y="8" width="1" height="1" fill="#10131a"/><rect x="24" y="8" width="8" height="1" fill="#eeb75d"/><rect x="0" y="9" width="1" height="1" fill="#efbd68"/><rect x="1" y="9" width="1" height="1" fill="#f0c16d"/><rect x="2" y="9" width="1" height="1" fill="#f1c472"/><rect x="3" y="9" width="1" height="1" fill="#f2c776"/><rect x="4" y="9" width="1" height="1" fill="#f2c97a"/><rect x="5" y="9" width="1" height="1" fill="#f3cb7d"/><rect x="6" y="9" width="1" height="1" fill="#f3cb7e"/><rect x="7" y="9" width="1" height="1" fill="#f3cb7d"/><rect x="8" y="9" width="1" height="1" fill="#f2c97a"/><rect x="9" y="9" width="1" height="1" fill="#f2c776"/><rect x="10" y="9" width="1" height="1" fill="#f1c472"/><rect x="11" y="9" width="1" height="1" fill="#f0c16d"/><rect x="12" y="9" width="1" height="1" fill="#10131a"/><rect x="13" y="9" width="2" height="1" fill="#d9a85c"/><rect x="15" y="9" width="1" height="1" fill="#10131a"/><rect x="16" y="9" width="4" height="1" fill="#edb55b"/><rect x="20" y="9" width="1" height="1" fill="#10131a"/><rect x="21" y="9" width="2" height="1" fill="#d9a85c"/><rect x="23" y="9" width="1" height="1" fill="#10131a"/><rect x="24" y="9" width="8" height="1" fill="#edb55b"/><rect x="0" y="10" width="1" height="1" fill="#eeba63"/><rect x="1" y="10" width="1" height="1" fill="#efbd68"/><rect x="2" y="10" width="1" height="1" fill="#f0c06d"/><rect x="3" y="10" width="1" height="1" fill="#f1c270"/><rect x="4" y="10" width="1" height="1" fill="#f1c474"/><rect x="5" y="10" width="3" height="1" fill="#f2c676"/><rect x="8" y="10" width="1" height="1" fill="#f1c474"/><rect x="9" y="10" width="1" height="1" fill="#f1c270"/><rect x="10" y="10" width="1" height="1" fill="#f0c06d"/><rect x="11" y="10" width="1" height="1" fill="#efbd68"/><rect x="12" y="10" width="1" height="1" fill="#eeba63"/><rect x="13" y="10" width="10" height="1" fill="#10131a"/><rect x="23" y="10" width="9" height="1" fill="#edb359"/><rect x="0" y="11" width="1" height="1" fill="#edb45e"/><rect x="1" y="11" width="1" height="1" fill="#eeb862"/><rect x="2" y="11" width="1" height="1" fill="#efba66"/><rect x="3" y="11" width="1" height="1" fill="#efbd6a"/><rect x="4" y="11" width="1" height="1" fill="#f0bf6d"/><rect x="5" y="11" width="1" height="1" fill="#f0c06e"/><rect x="6" y="11" width="1" height="1" fill="#f0c06f"/><rect x="7" y="11" width="1" height="1" fill="#f0c06e"/><rect x="8" y="11" width="1" height="1" fill="#f0bf6d"/><rect x="9" y="11" width="1" height="1" fill="#efbd6a"/><rect x="10" y="11" width="1" height="1" fill="#efba66"/><rect x="11" y="11" width="1" height="1" fill="#eeb862"/><rect x="12" y="11" width="1" height="1" fill="#edb45e"/><rect x="13" y="11" width="1" height="1" fill="#10131a"/><rect x="14" y="11" width="1" height="1" fill="#a87c3c"/><rect x="15" y="11" width="7" height="1" fill="#d9a85c"/><rect x="22" y="11" width="1" height="1" fill="#10131a"/><rect x="23" y="11" width="9" height="1" fill="#ecb057"/><rect x="0" y="12" width="1" height="1" fill="#ecb058"/><rect x="1" y="12" width="1" height="1" fill="#edb35c"/><rect x="2" y="12" width="1" height="1" fill="#eeb560"/><rect x="3" y="12" width="1" height="1" fill="#eeb763"/><rect x="4" y="12" width="1" height="1" fill="#efb965"/><rect x="5" y="12" width="1" height="1" fill="#efba67"/><rect x="6" y="12" width="1" height="1" fill="#efbb67"/><rect x="7" y="12" width="1" height="1" fill="#efba67"/><rect x="8" y="12" width="1" height="1" fill="#efb965"/><rect x="9" y="12" width="1" height="1" fill="#eeb763"/><rect x="10" y="12" width="1" height="1" fill="#eeb560"/><rect x="11" y="12" width="1" height="1" fill="#edb35c"/><rect x="12" y="12" width="1" height="1" fill="#10131a"/><rect x="13" y="12" width="1" height="1" fill="#a87c3c"/><rect x="14" y="12" width="9" height="1" fill="#d9a85c"/><rect x="23" y="12" width="1" height="1" fill="#10131a"/><rect x="24" y="12" width="8" height="1" fill="#ecae55"/><rect x="0" y="13" width="1" height="1" fill="#ebac53"/><rect x="1" y="13" width="1" height="1" fill="#ebad55"/><rect x="2" y="13" width="1" height="1" fill="#ecb059"/><rect x="3" y="13" width="1" height="1" fill="#ecb25b"/><rect x="4" y="13" width="1" height="1" fill="#edb35e"/><rect x="5" y="13" width="1" height="1" fill="#edb45f"/><rect x="6" y="13" width="1" height="1" fill="#edb55f"/><rect x="7" y="13" width="1" height="1" fill="#edb45f"/><rect x="8" y="13" width="1" height="1" fill="#edb35e"/><rect x="9" y="13" width="1" height="1" fill="#ecb25b"/><rect x="10" y="13" width="1" height="1" fill="#ecb059"/><rect x="11" y="13" width="1" height="1" fill="#10131a"/><rect x="12" y="13" width="1" height="1" fill="#a87c3c"/><rect x="13" y="13" width="11" height="1" fill="#d9a85c"/><rect x="24" y="13" width="1" height="1" fill="#10131a"/><rect x="25" y="13" width="7" height="1" fill="#ebac53"/><rect x="0" y="14" width="3" height="1" fill="#eaaa51"/><rect x="3" y="14" width="1" height="1" fill="#eaac54"/><rect x="4" y="14" width="4" height="1" fill="#10131a"/><rect x="8" y="14" width="1" height="1" fill="#eaad55"/><rect x="9" y="14" width="1" height="1" fill="#eaac54"/><rect x="10" y="14" width="1" height="1" fill="#eaaa51"/><rect x="11" y="14" width="1" height="1" fill="#10131a"/><rect x="12" y="14" width="1" height="1" fill="#a87c3c"/><rect x="13" y="14" width="11" height="1" fill="#d9a85c"/><rect x="24" y="14" width="1" height="1" fill="#10131a"/><rect x="25" y="14" width="7" height="1" fill="#eaaa51"/><rect x="0" y="15" width="3" height="1" fill="#eaa84f"/><rect x="3" y="15" width="1" height="1" fill="#10131a"/><rect x="4" y="15" width="4" height="1" fill="#221a12"/><rect x="8" y="15" width="1" height="1" fill="#10131a"/><rect x="9" y="15" width="2" height="1" fill="#eaa84f"/><rect x="11" y="15" width="1" height="1" fill="#10131a"/><rect x="12" y="15" width="1" height="1" fill="#a87c3c"/><rect x="13" y="15" width="3" height="1" fill="#d9a85c"/><rect x="16" y="15" width="1" height="1" fill="#ffc94d"/><rect x="17" y="15" width="1" height="1" fill="#ffffff"/><rect x="18" y="15" width="3" height="1" fill="#d9a85c"/><rect x="21" y="15" width="1" height="1" fill="#ffc94d"/><rect x="22" y="15" width="1" height="1" fill="#ffffff"/><rect x="23" y="15" width="1" height="1" fill="#d9a85c"/><rect x="24" y="15" width="1" height="1" fill="#10131a"/><rect x="25" y="15" width="7" height="1" fill="#eaa84f"/><rect x="0" y="16" width="2" height="1" fill="#e7a54c"/><rect x="2" y="16" width="1" height="1" fill="#10131a"/><rect x="3" y="16" width="5" height="1" fill="#221a12"/><rect x="8" y="16" width="1" height="1" fill="#10131a"/><rect x="9" y="16" width="1" height="1" fill="#e7a54c"/><rect x="10" y="16" width="1" height="1" fill="#10131a"/><rect x="11" y="16" width="1" height="1" fill="#a87c3c"/><rect x="12" y="16" width="4" height="1" fill="#d9a85c"/><rect x="16" y="16" width="2" height="1" fill="#ffc94d"/><rect x="18" y="16" width="3" height="1" fill="#d9a85c"/><rect x="21" y="16" width="2" height="1" fill="#ffc94d"/><rect x="23" y="16" width="2" height="1" fill="#d9a85c"/><rect x="25" y="16" width="1" height="1" fill="#10131a"/><rect x="26" y="16" width="6" height="1" fill="#e7a54c"/><rect x="0" y="17" width="1" height="1" fill="#e3a14a"/><rect x="1" y="17" width="1" height="1" fill="#10131a"/><rect x="2" y="17" width="6" height="1" fill="#221a12"/><rect x="8" y="17" width="1" height="1" fill="#10131a"/><rect x="9" y="17" width="1" height="1" fill="#e3a14a"/><rect x="10" y="17" width="1" height="1" fill="#10131a"/><rect x="11" y="17" width="1" height="1" fill="#a87c3c"/><rect x="12" y="17" width="5" height="1" fill="#d9a85c"/><rect x="17" y="17" width="1" height="1" fill="#221a12"/><rect x="18" y="17" width="2" height="1" fill="#d9a85c"/><rect x="20" y="17" width="1" height="1" fill="#221a12"/><rect x="21" y="17" width="4" height="1" fill="#d9a85c"/><rect x="25" y="17" width="1" height="1" fill="#10131a"/><rect x="26" y="17" width="6" height="1" fill="#e3a14a"/><rect x="0" y="18" width="1" height="1" fill="#de9e48"/><rect x="1" y="18" width="1" height="1" fill="#10131a"/><rect x="2" y="18" width="6" height="1" fill="#221a12"/><rect x="8" y="18" width="1" height="1" fill="#10131a"/><rect x="9" y="18" width="1" height="1" fill="#de9e48"/><rect x="10" y="18" width="1" height="1" fill="#10131a"/><rect x="11" y="18" width="1" height="1" fill="#a87c3c"/><rect x="12" y="18" width="3" height="1" fill="#d9a85c"/><rect x="15" y="18" width="2" height="1" fill="#f0e0c0"/><rect x="17" y="18" width="1" height="1" fill="#221a12"/><rect x="18" y="18" width="2" height="1" fill="#16181f"/><rect x="20" y="18" width="1" height="1" fill="#221a12"/><rect x="21" y="18" width="2" height="1" fill="#f0e0c0"/><rect x="23" y="18" width="2" height="1" fill="#d9a85c"/><rect x="25" y="18" width="1" height="1" fill="#10131a"/><rect x="26" y="18" width="6" height="1" fill="#de9e48"/><rect x="0" y="19" width="1" height="1" fill="#da9a46"/><rect x="1" y="19" width="1" height="1" fill="#10131a"/><rect x="2" y="19" width="5" height="1" fill="#d9a85c"/><rect x="7" y="19" width="1" height="1" fill="#10131a"/><rect x="8" y="19" width="3" height="1" fill="#da9a46"/><rect x="11" y="19" width="1" height="1" fill="#10131a"/><rect x="12" y="19" width="1" height="1" fill="#a87c3c"/><rect x="13" y="19" width="3" height="1" fill="#d9a85c"/><rect x="16" y="19" width="2" height="1" fill="#f0e0c0"/><rect x="18" y="19" width="2" height="1" fill="#221a12"/><rect x="20" y="19" width="2" height="1" fill="#f0e0c0"/><rect x="22" y="19" width="2" height="1" fill="#d9a85c"/><rect x="24" y="19" width="1" height="1" fill="#10131a"/><rect x="25" y="19" width="7" height="1" fill="#da9a46"/><rect x="0" y="20" width="1" height="1" fill="#c88e43"/><rect x="1" y="20" width="1" height="1" fill="#10131a"/><rect x="2" y="20" width="5" height="1" fill="#d9a85c"/><rect x="7" y="20" width="1" height="1" fill="#10131a"/><rect x="8" y="20" width="3" height="1" fill="#c88e43"/><rect x="11" y="20" width="1" height="1" fill="#10131a"/><rect x="12" y="20" width="1" height="1" fill="#a87c3c"/><rect x="13" y="20" width="10" height="1" fill="#d9a85c"/><rect x="23" y="20" width="1" height="1" fill="#10131a"/><rect x="24" y="20" width="8" height="1" fill="#c88e43"/><rect x="0" y="21" width="1" height="1" fill="#c68c42"/><rect x="1" y="21" width="1" height="1" fill="#10131a"/><rect x="2" y="21" width="5" height="1" fill="#221a12"/><rect x="7" y="21" width="1" height="1" fill="#10131a"/><rect x="8" y="21" width="2" height="1" fill="#c68c42"/><rect x="10" y="21" width="1" height="1" fill="#10131a"/><rect x="11" y="21" width="1" height="1" fill="#a87c3c"/><rect x="12" y="21" width="1" height="1" fill="#d9a85c"/><rect x="13" y="21" width="1" height="1" fill="#221a12"/><rect x="14" y="21" width="2" height="1" fill="#d9a85c"/><rect x="16" y="21" width="4" height="1" fill="#f0e0c0"/><rect x="20" y="21" width="1" height="1" fill="#221a12"/><rect x="21" y="21" width="1" height="1" fill="#f0e0c0"/><rect x="22" y="21" width="1" height="1" fill="#d9a85c"/><rect x="23" y="21" width="1" height="1" fill="#10131a"/><rect x="24" y="21" width="8" height="1" fill="#c68c42"/><rect x="0" y="22" width="1" height="1" fill="#c48b41"/><rect x="1" y="22" width="1" height="1" fill="#10131a"/><rect x="2" y="22" width="6" height="1" fill="#221a12"/><rect x="8" y="22" width="1" height="1" fill="#10131a"/><rect x="9" y="22" width="1" height="1" fill="#c48b41"/><rect x="10" y="22" width="1" height="1" fill="#10131a"/><rect x="11" y="22" width="1" height="1" fill="#a87c3c"/><rect x="12" y="22" width="3" height="1" fill="#d9a85c"/><rect x="15" y="22" width="8" height="1" fill="#f0e0c0"/><rect x="23" y="22" width="1" height="1" fill="#10131a"/><rect x="24" y="22" width="8" height="1" fill="#c48b41"/><rect x="0" y="23" width="2" height="1" fill="#c28940"/><rect x="2" y="23" width="1" height="1" fill="#10131a"/><rect x="3" y="23" width="6" height="1" fill="#d9a85c"/><rect x="9" y="23" width="1" height="1" fill="#10131a"/><rect x="10" y="23" width="1" height="1" fill="#a87c3c"/><rect x="11" y="23" width="1" height="1" fill="#d9a85c"/><rect x="12" y="23" width="1" height="1" fill="#221a12"/><rect x="13" y="23" width="2" height="1" fill="#d9a85c"/><rect x="15" y="23" width="6" height="1" fill="#f0e0c0"/><rect x="21" y="23" width="1" height="1" fill="#221a12"/><rect x="22" y="23" width="1" height="1" fill="#f0e0c0"/><rect x="23" y="23" width="1" height="1" fill="#10131a"/><rect x="24" y="23" width="8" height="1" fill="#c28940"/><rect x="0" y="24" width="3" height="1" fill="#c18840"/><rect x="3" y="24" width="2" height="1" fill="#10131a"/><rect x="5" y="24" width="5" height="1" fill="#d9a85c"/><rect x="10" y="24" width="1" height="1" fill="#a87c3c"/><rect x="11" y="24" width="3" height="1" fill="#d9a85c"/><rect x="14" y="24" width="1" height="1" fill="#10131a"/><rect x="15" y="24" width="1" height="1" fill="#221a12"/><rect x="16" y="24" width="1" height="1" fill="#d9a85c"/><rect x="17" y="24" width="1" height="1" fill="#10131a"/><rect x="18" y="24" width="1" height="1" fill="#d9a85c"/><rect x="19" y="24" width="1" height="1" fill="#221a12"/><rect x="20" y="24" width="1" height="1" fill="#10131a"/><rect x="21" y="24" width="1" height="1" fill="#d9a85c"/><rect x="22" y="24" width="1" height="1" fill="#10131a"/><rect x="23" y="24" width="9" height="1" fill="#c18840"/><rect x="0" y="25" width="5" height="1" fill="#bf863f"/><rect x="5" y="25" width="2" height="1" fill="#10131a"/><rect x="7" y="25" width="3" height="1" fill="#d9a85c"/><rect x="10" y="25" width="1" height="1" fill="#a87c3c"/><rect x="11" y="25" width="3" height="1" fill="#d9a85c"/><rect x="14" y="25" width="1" height="1" fill="#10131a"/><rect x="15" y="25" width="2" height="1" fill="#d9a85c"/><rect x="17" y="25" width="1" height="1" fill="#10131a"/><rect x="18" y="25" width="2" height="1" fill="#d9a85c"/><rect x="20" y="25" width="1" height="1" fill="#10131a"/><rect x="21" y="25" width="1" height="1" fill="#221a12"/><rect x="22" y="25" width="1" height="1" fill="#10131a"/><rect x="23" y="25" width="9" height="1" fill="#bf863f"/><rect x="0" y="26" width="4" height="1" fill="#bd853e"/><rect x="4" y="26" width="21" height="1" fill="#10131a"/><rect x="25" y="26" width="7" height="1" fill="#bd853e"/><rect x="0" y="27" width="32" height="1" fill="#bb833d"/><rect x="0" y="28" width="32" height="1" fill="#ba823c"/><rect x="0" y="29" width="32" height="1" fill="#b8803b"/><rect x="0" y="30" width="32" height="1" fill="#b67f3a"/><rect x="0" y="31" width="32" height="1" fill="#b57e3a"/></svg>